<?xml version="1.0" standalone="no"?><!DOCTYPE svg PUBLIC "-//W3C//DTD SVG 1.1//EN" "http://www.w3.org/Graphics/SVG/1.1/DTD/svg11.dtd"><svg class="icon" width="200px" height="66.67px" viewBox="0 0 3072 1024" version="1.1" xmlns="http://www.w3.org/2000/svg"><path d="M525.653333 960.853333c-250.88 0-448.853333-203.093333-448.853333-455.68C76.8 252.586667 278.186667 51.2 530.773333 52.906667c245.76 0 445.44 206.506667 445.44 457.386666-1.706667 249.173333-203.093333 452.266667-450.56 450.56z" fill="#930216" /><path d="M2012.16 837.973333c-8.533333-10.24-17.066667-18.773333-30.72-18.773333-15.36-1.706667-29.013333 3.413333-35.84 17.066667-8.533333 15.36-8.533333 30.72 1.706667 46.08 10.24 13.653333 25.6 17.066667 42.666666 13.653333 10.24-1.706667 10.24-10.24 10.24-18.773333 0-8.533333 0-15.36-6.826666-22.186667h29.013333c-5.12 6.826667-6.826667 15.36-5.12 22.186667 1.706667 15.36-5.12 22.186667-18.773333 23.893333-15.36 1.706667-30.72 3.413333-46.08-1.706667-20.48-6.826667-30.72-20.48-30.72-39.253333 0-18.773333 11.946667-32.426667 29.013333-40.96 18.773333-8.533333 39.253333-1.706667 58.026667-1.706667 8.533333-1.706667 1.706667 11.946667 3.413333 20.48z" fill="#8B1628" /><path d="M2280.106667 815.786667c-15.36 25.6-1.706667 56.32-8.533334 83.626666-20.48-22.186667-42.666667-42.666667-63.146666-64.853333-1.706667 1.706667-3.413333 1.706667-5.12 3.413333 1.706667 20.48-6.826667 42.666667 6.826666 63.146667h-23.893333c15.36-17.066667 13.653333-71.68 0-83.626667 15.36-5.12 25.6 1.706667 35.84 11.946667 13.653333 15.36 29.013333 27.306667 42.666667 40.96 5.12-32.426667 3.413333-40.96-8.533334-52.906667 8.533333-1.706667 17.066667-1.706667 23.893334-1.706666z" fill="#8D1226" /><path d="M1829.546667 836.266667c3.413333 20.48-6.826667 42.666667 8.533333 63.146666h-23.893333c11.946667-15.36 13.653333-68.266667 0-83.626666 13.653333-3.413333 22.186667-1.706667 32.426666 10.24 13.653333 15.36 27.306667 29.013333 42.666667 44.373333 0 0 1.706667 1.706667 6.826667 1.706667-3.413333-20.48 8.533333-40.96-10.24-58.026667h23.893333c-13.653333 27.306667-1.706667 56.32-6.826667 80.213333-20.48-20.48-42.666667-40.96-64.853333-61.44-5.12 1.706667-6.826667 3.413333-8.533333 3.413334z" fill="#921025" /><path d="M1599.146667 889.173333c-1.706667-23.893333 3.413333-49.493333-3.413334-75.093333 15.36 0 34.133333-1.706667 52.906667 1.706667 23.893333 3.413333 35.84 15.36 39.253333 34.133333 3.413333 17.066667-5.12 29.013333-27.306666 42.666667-5.12 3.413333-8.533333 3.413333-11.946667-3.413334 1.706667-6.826667 6.826667-11.946667 10.24-17.066666 8.533333-15.36 3.413333-32.426667-10.24-40.96-8.533333-5.12-17.066667-10.24-25.6-5.12s-5.12 13.653333-6.826667 22.186666c-1.706667 15.36 3.413333 32.426667-3.413333 47.786667-3.413333 1.706667-13.653333 10.24-13.653333-6.826667z" fill="#900917" /><path d="M1488.213333 822.613333c-3.413333-1.706667-5.12-3.413333-8.533333-6.826666 11.946667-3.413333 22.186667-3.413333 32.426667 6.826666 15.36 17.066667 30.72 32.426667 47.786666 47.786667-1.706667-18.773333 8.533333-37.546667-5.12-56.32 6.826667-1.706667 15.36-1.706667 22.186667 0-15.36 25.6-1.706667 56.32-6.826667 78.506667-20.48-18.773333-44.373333-39.253333-68.266666-59.733334-10.24 0-10.24-5.12-13.653334-10.24z" fill="#8F0C23" /><path d="M2401.28 875.52c8.533333-20.48 23.893333-35.84 25.6-59.733333h15.36c-13.653333 29.013333-27.306667 56.32-42.666667 87.04-20.48-27.306667-29.013333-59.733333-51.2-87.04h29.013334c-3.413333 23.893333 15.36 39.253333 23.893333 59.733333z" fill="#901324" /><path d="M2875.733333 836.266667c-3.413333-5.12-5.12-10.24-8.533333-11.946667-6.826667-5.12-13.653333-5.12-20.48-3.413333-8.533333 1.706667-5.12 10.24-5.12 15.36v44.373333c0 8.533333 1.706667 13.653333 13.653333 18.773333H2816c6.826667-5.12 10.24-10.24 10.24-18.773333v-42.666667c0-6.826667 5.12-15.36-5.12-17.066666-8.533333-1.706667-18.773333-1.706667-25.6 6.826666-1.706667 1.706667-3.413333 3.413333-3.413333 6.826667-5.12-20.48-5.12-20.48 13.653333-20.48 17.066667 0 35.84 1.706667 52.906667 0 15.36 0 20.48 3.413333 17.066666 22.186667z" fill="#930B1B" /><path d="M2466.133333 889.173333c-1.706667-23.893333 3.413333-49.493333-3.413333-75.093333h59.733333c13.653333 0 13.653333 6.826667 10.24 17.066667-11.946667-17.066667-30.72-11.946667-46.08-10.24-10.24 1.706667-3.413333 15.36-5.12 22.186666-1.706667 8.533333 3.413333 8.533333 10.24 8.533334 11.946667-1.706667 23.893333 5.12 32.426667-15.36v30.72c-5.12-3.413333-8.533333-8.533333-13.653333-10.24-27.306667-6.826667-30.72-1.706667-29.013334 34.133333 0 8.533333-6.826667 6.826667-11.946666 5.12-3.413333 1.706667-5.12-1.706667-3.413334-6.826667z" fill="#910A19" /><path d="M2740.906667 899.413333c13.653333-11.946667 15.36-71.68 1.706666-83.626666 11.946667-3.413333 23.893333-1.706667 34.133334 0-11.946667 11.946667-13.653333 69.973333-1.706667 83.626666h-34.133333z" fill="#991525" /><path d="M1327.786667 851.626667c-1.706667-11.946667 6.826667-25.6-8.533334-35.84 11.946667-1.706667 22.186667-1.706667 32.426667 0-11.946667 11.946667-11.946667 69.973333 0 83.626666h-32.426667c11.946667-11.946667 6.826667-25.6 6.826667-39.253333 0-3.413333 0-5.12 1.706667-8.533333z" fill="#9A1521" /><path d="M1283.413333 860.16c0 13.653333-6.826667 29.013333 6.826667 39.253333h-34.133333c11.946667-13.653333 11.946667-71.68 0-83.626666 10.24-3.413333 22.186667-1.706667 32.426666 0-11.946667 10.24-6.826667 23.893333-6.826666 35.84 3.413333 3.413333 3.413333 5.12 1.706666 8.533333z" fill="#981620" /><path d="M2944 860.16c1.706667 13.653333-6.826667 30.72 10.24 39.253333H2918.4c18.773333-22.186667 10.24-46.08-35.84-85.333333h29.013333c6.826667 0 3.413333 3.413333 5.12 6.826667 3.413333 11.946667 13.653333 20.48 20.48 30.72 0 3.413333 10.24 1.706667 6.826667 8.533333z" fill="#91091E" /><path d="M2694.826667 897.706667c17.066667-11.946667 18.773333-18.773333 0-30.72-8.533333-5.12-15.36-8.533333-23.893334-13.653334-8.533333-5.12-13.653333-11.946667-11.946666-22.186666 1.706667-10.24 8.533333-17.066667 18.773333-15.36 3.413333-1.706667 5.12 0 5.12 3.413333-13.653333 6.826667-15.36 13.653333-3.413333 22.186667l25.6 15.36c10.24 5.12 22.186667 13.653333 17.066666 27.306666-3.413333 13.653333-15.36 18.773333-29.013333 18.773334 0-3.413333 0-3.413333 1.706667-5.12-1.706667 0 0 0 0 0z" fill="#930C21" /><path d="M2295.466667 814.08h35.84c-11.946667 15.36-10.24 71.68 1.706666 85.333333h-32.426666c10.24-18.773333 8.533333-73.386667-5.12-85.333333z" fill="#8C0617" /><path d="M1223.68 889.173333c3.413333-10.24-1.706667-17.066667-11.946667-22.186666-8.533333-5.12-18.773333-8.533333-27.306666-15.36-13.653333-10.24-11.946667-22.186667 0-34.133334 3.413333-1.706667 5.12 0 5.12 3.413334-8.533333 10.24 1.706667 15.36 6.826666 18.773333 10.24 6.826667 20.48 10.24 30.72 17.066667 18.773333 11.946667 17.066667 29.013333-3.413333 39.253333-1.706667-1.706667-1.706667-3.413333 0-6.826667z" fill="#920C25" /><path d="M2124.8 901.12c-32.426667 1.706667-40.96-6.826667-42.666667-40.96 0-15.36 6.826667-30.72-6.826666-44.373333h34.133333c-10.24 3.413333-11.946667 10.24-11.946667 17.066666 0 10.24 1.706667 20.48 0 29.013334-1.706667 20.48 5.12 32.426667 25.6 34.133333 3.413333 1.706667 3.413333 1.706667 1.706667 5.12 1.706667-1.706667 0 0 0 0z" fill="#881024" /><path d="M2124.8 901.12v-3.413333c11.946667-3.413333 25.6-5.12 29.013333-22.186667 3.413333-23.893333 0-49.493333-11.946666-59.733333h30.72c-10.24 5.12-11.946667 11.946667-10.24 20.48v29.013333c-1.706667 25.6-11.946667 35.84-37.546667 35.84z" fill="#8D2C3B" /><path d="M1488.213333 822.613333l10.24 10.24c-3.413333 22.186667-8.533333 44.373333 6.826667 66.56h-23.893333c13.653333-23.893333 3.413333-51.2 6.826666-76.8z" fill="#7D313A" /><path d="M2466.133333 889.173333c3.413333 10.24 10.24 8.533333 17.066667 3.413334 20.48 0 42.666667 6.826667 58.026667-17.066667 0 18.773333-5.12 27.306667-22.186667 25.6-20.48-1.706667-42.666667 0-64.853333 0l11.946666-11.946667z" fill="#924E5A" /><path d="M2944 860.16c-1.706667-3.413333-5.12-5.12-6.826667-8.533333 11.946667-8.533333 25.6-15.36 22.186667-34.133334 0-5.12 3.413333-3.413333 5.12-3.413333h22.186667c-20.48 13.653333-29.013333 32.426667-42.666667 46.08z" fill="#82303E" /><path d="M1189.546667 822.613333c-1.706667-1.706667-3.413333-3.413333-5.12-3.413333 13.653333-13.653333 30.72-1.706667 46.08-1.706667 6.826667 0 3.413333 13.653333 5.12 29.013334-11.946667-23.893333-25.6-32.426667-46.08-23.893334z" fill="#8E3C4C" /><path d="M1652.053333 890.88c1.706667 3.413333 6.826667 1.706667 10.24 3.413333-22.186667 13.653333-47.786667 5.12-71.68 8.533334 3.413333-3.413333 6.826667-8.533333 8.533334-11.946667 3.413333 10.24 10.24 8.533333 17.066666 3.413333 11.946667-8.533333 23.893333-8.533333 35.84-3.413333z" fill="#984151" /><path d="M1223.68 889.173333c0 3.413333 0 5.12 1.706667 8.533334-15.36 10.24-30.72-1.706667-46.08 1.706666-5.12 0-5.12-13.653333-5.12-23.893333 13.653333 15.36 27.306667 30.72 49.493333 13.653333z" fill="#802B37" /><path d="M2682.88 819.2c-1.706667-1.706667-3.413333-3.413333-5.12-3.413333 11.946667-8.533333 23.893333 1.706667 35.84 0 6.826667 0 5.12 15.36 5.12 27.306666-8.533333-17.066667-18.773333-25.6-35.84-23.893333z" fill="#8F444F" /><path d="M2694.826667 897.706667v3.413333c-10.24 5.12-22.186667-1.706667-32.426667-1.706667-8.533333 0-5.12-13.653333-5.12-23.893333 8.533333 11.946667 20.48 22.186667 37.546667 22.186667z" fill="#90444E" /><path d="M1283.413333 860.16v-8.533333h44.373334v8.533333h-44.373334z" fill="#9E4155" /><path d="M1774.933333 819.2c-1.706667 1.706667-5.12 1.706667-6.826666 3.413333-11.946667 3.413333-22.186667 3.413333-34.133334 0-3.413333-1.706667-5.12-1.706667-8.533333-3.413333 17.066667-10.24 32.426667-10.24 49.493333 0z" fill="#91444B" /><path d="M2491.733333 223.573333c3.413333-5.12-1.706667-10.24-6.826666-13.653333-5.12-3.413333-5.12 0-8.533334 3.413333-23.893333 22.186667-47.786667 40.96-75.093333 58.026667-6.826667 5.12-10.24 5.12-15.36-3.413333-10.24-15.36-23.893333-23.893333-39.253333-34.133334-6.826667-3.413333-13.653333-6.826667-20.48-1.706666-6.826667 5.12-6.826667 11.946667-5.12 20.48l10.24 30.72c3.413333 10.24 8.533333 22.186667-1.706667 29.013333-30.72 23.893333-61.44 51.2-104.106667 51.2-17.066667 0-25.6 15.36-13.653333 25.6 22.186667 18.773333 37.546667 51.2 78.506667 32.426667-11.946667 23.893333-25.6 44.373333-34.133334 64.853333-27.306667 63.146667-69.973333 114.346667-122.88 158.72-5.12 5.12-10.24 8.533333-15.36 13.653333-1.706667 3.413333-5.12 6.826667-3.413333 10.24 1.706667 3.413333 6.826667 3.413333 10.24 1.706667 17.066667-1.706667 29.013333-11.946667 40.96-22.186667 56.32-47.786667 105.813333-102.4 150.186667-162.133333 29.013333-40.96 61.44-81.92 71.68-131.413333 6.826667-32.426667 23.893333-47.786667 49.493333-59.733334 39.253333-10.24 40.96-44.373333 54.613333-71.68zM1384.106667 462.506667c-6.826667-5.12-11.946667 1.706667-17.066667 6.826666-34.133333 39.253333-81.92 63.146667-119.466667 98.986667-13.653333 13.653333-30.72 22.186667-49.493333 34.133333 5.12-18.773333 10.24-34.133333 11.946667-51.2 3.413333-17.066667 5.12-35.84-5.12-52.906666-3.413333-5.12-8.533333-10.24-15.36-10.24-6.826667 1.706667-6.826667 8.533333-8.533334 15.36-10.24 39.253333-20.48 76.8-44.373333 109.226666-3.413333 5.12-5.12 8.533333 0 13.653334 8.533333 10.24 18.773333 22.186667 27.306667 32.426666 5.12 5.12 8.533333 5.12 15.36 3.413334 93.866667-32.426667 153.6-100.693333 199.68-184.32 5.12-3.413333 10.24-10.24 5.12-15.36zM1348.266667 232.106667c-8.533333 5.12-5.12 11.946667-1.706667 17.066666 8.533333 11.946667 8.533333 27.306667 6.826667 40.96-1.706667 18.773333-3.413333 37.546667-6.826667 54.613334-5.12 29.013333-1.706667 61.44-17.066667 88.746666-1.706667 5.12 0 6.826667 3.413334 10.24 5.12 3.413333 8.533333 1.706667 13.653333-1.706666 11.946667-11.946667 20.48-23.893333 23.893333-40.96 5.12-35.84 11.946667-73.386667 25.6-107.52 1.706667-1.706667 1.706667-5.12 1.706667-6.826667-5.12-20.48-18.773333-34.133333-32.426667-49.493333-5.12-5.12-10.24-10.24-17.066666-5.12zM2503.68 544.426667c-5.12-23.893333-42.666667-54.613333-68.266667-54.613334-11.946667 0-11.946667 8.533333-10.24 15.36 1.706667 13.653333 6.826667 25.6 8.533334 39.253334 5.12 29.013333 11.946667 58.026667-8.533334 85.333333-3.413333 3.413333-5.12 11.946667 1.706667 15.36 5.12 3.413333 10.24-1.706667 13.653333-6.826667 17.066667-25.6 34.133333-51.2 58.026667-71.68 5.12-3.413333 5.12-10.24 5.12-17.066666 1.706667 0 1.706667-1.706667 0-5.12zM1503.573333 448.853333c-5.12-6.826667-10.24-15.36-20.48-13.653333-11.946667 1.706667-5.12 13.653333-8.533333 20.48 0 1.706667-1.706667 3.413333-1.706667 5.12-11.946667 29.013333-23.893333 58.026667-49.493333 80.213333-3.413333 3.413333-6.826667 6.826667-3.413333 11.946667 3.413333 6.826667 8.533333 1.706667 13.653333 1.706667 1.706667 0 5.12-1.706667 6.826667-3.413334 27.306667-15.36 52.906667-34.133333 85.333333-39.253333 8.533333-1.706667 13.653333-6.826667 15.36-17.066667 0-5.12-3.413333-8.533333-6.826667-11.946666-11.946667-11.946667-22.186667-22.186667-30.72-34.133334zM1960.96 597.333333c-20.48-11.946667-42.666667-13.653333-63.146667-20.48-8.533333 1.706667-15.36 0-17.066666 6.826667-1.706667 5.12 3.413333 8.533333 6.826666 11.946667 17.066667 15.36 32.426667 34.133333 40.96 56.32 3.413333 8.533333 6.826667 17.066667 18.773334 13.653333 18.773333-5.12 22.186667-23.893333 29.013333-39.253333 3.413333-11.946667-3.413333-22.186667-15.36-29.013334zM2897.92 291.84c17.066667-25.6 40.96-49.493333 64.853333-71.68 22.186667-20.48 32.426667-51.2 42.666667-78.506667 1.706667-3.413333 1.706667-6.826667 0-10.24-6.826667-10.24-42.666667-23.893333-51.2-15.36-18.773333 18.773333-49.493333 23.893333-63.146667 49.493334-3.413333 5.12-8.533333 8.533333-11.946666 6.826666-25.6-8.533333-40.96 3.413333-56.32 22.186667-17.066667 18.773333-42.666667 30.72-64.853334 46.08-17.066667 10.24-25.6 6.826667-29.013333-13.653333v-11.946667c0-5.12-1.706667-10.24-5.12-11.946667-5.12-1.706667-8.533333 5.12-10.24 8.533334-10.24 17.066667-10.24 37.546667-10.24 56.32 0 8.533333 0 18.773333 11.946667 22.186666 11.946667 3.413333 27.306667 6.826667 34.133333-5.12 15.36-23.893333 39.253333-34.133333 59.733333-52.906666 17.066667-15.36 34.133333-27.306667 56.32-6.826667 1.706667 1.706667 5.12 3.413333 8.533334 3.413333 18.773333 5.12 20.48 11.946667 5.12 23.893334-29.013333 25.6-52.906667 56.32-80.213334 81.92-25.6 23.893333-47.786667 49.493333-78.506666 64.853333-13.653333 6.826667-25.6 32.426667-20.48 49.493333 5.12 15.36 20.48 11.946667 32.426666 15.36 6.826667 1.706667 13.653333-3.413333 18.773334-6.826666 8.533333-6.826667 17.066667-13.653333 23.893333-20.48 3.413333-3.413333 6.826667-6.826667 11.946667-3.413334 3.413333 3.413333 3.413333 8.533333 1.706666 11.946667-3.413333 11.946667-8.533333 23.893333-15.36 34.133333-6.826667 10.24-6.826667 20.48 0 29.013334 6.826667 10.24 17.066667 8.533333 29.013334 6.826666 30.72-6.826667 52.906667 1.706667 61.44 25.6-66.56-8.533333-128 11.946667-186.026667 40.96-49.493333 25.6-51.2 34.133333-6.826667 68.266667 39.253333 30.72 83.626667 54.613333 129.706667 73.386667 40.96 17.066667 78.506667-5.12 87.04-49.493334 5.12-22.186667 8.533333-44.373333 10.24-66.56 1.706667-10.24 5.12-13.653333 13.653333-10.24 13.653333 3.413333 29.013333 6.826667 37.546667 15.36 13.653333 15.36 22.186667 8.533333 34.133333 1.706667 15.36-10.24 17.066667-18.773333 3.413334-32.426667-6.826667-6.826667-15.36-10.24-23.893334-13.653333-18.773333-5.12-35.84-10.24-52.906666-15.36-8.533333-1.706667-13.653333-5.12-11.946667-17.066667 1.706667-13.653333-6.826667-25.6-17.066667-32.426666-11.946667-8.533333-25.6-15.36-39.253333-18.773334-8.533333-1.706667-11.946667-6.826667-6.826667-15.36 10.24-25.6 20.48-51.2 30.72-75.093333 3.413333-6.826667 10.24-15.36 1.706667-23.893333-8.533333-10.24-18.773333-11.946667-30.72-8.533334-5.12 1.706667-11.946667 3.413333-18.773333 5.12 17.066667-32.426667 56.32-42.666667 80.213333-75.093333z m17.066667-119.466667c6.826667-3.413333 11.946667-6.826667 18.773333-8.533333l3.413333 3.413333c-3.413333 6.826667-8.533333 11.946667-11.946666 18.773334-3.413333 5.12-6.826667 6.826667-11.946667 6.826666-1.706667 0-5.12-3.413333-6.826667-5.12 0-10.24 3.413333-13.653333 8.533334-15.36z m-49.493334 447.146667c-3.413333 17.066667-10.24 32.426667-18.773333 46.08-8.533333 15.36-23.893333 18.773333-40.96 20.48-30.72-1.706667-56.32-15.36-81.92-29.013333-8.533333-3.413333-8.533333-10.24-1.706667-17.066667 5.12-5.12 10.24-8.533333 17.066667-11.946667 32.426667-15.36 66.56-25.6 98.986667-34.133333 22.186667-8.533333 32.426667 1.706667 27.306666 25.6z" fill="#9F0006" /><path d="M1995.093333 196.266667c-10.24-6.826667-10.24 5.12-13.653333 8.533333-3.413333 3.413333-6.826667 8.533333-10.24 10.24-22.186667 13.653333-44.373333 29.013333-66.56 49.493333 10.24-29.013333 17.066667-52.906667 25.6-76.8 6.826667-17.066667 1.706667-32.426667 0-47.786666 0-5.12-3.413333-10.24-8.533333-10.24-6.826667 0-6.826667 5.12-8.533334 10.24-3.413333 10.24-3.413333 22.186667-8.533333 32.426666l-66.56 133.12c-15.36 32.426667-44.373333 44.373333-76.8 47.786667-6.826667 0-15.36 0-18.773333 8.533333-3.413333 8.533333 0 15.36 6.826666 22.186667 10.24 8.533333 20.48 17.066667 30.72 23.893333 8.533333 5.12 8.533333 11.946667 5.12 20.48-17.066667 37.546667-35.84 73.386667-52.906666 110.933334-3.413333 5.12-13.653333 13.653333-1.706667 18.773333 13.653333 6.826667 20.48 27.306667 40.96 17.066667 13.653333-8.533333 27.306667-15.36 40.96-23.893334 8.533333-5.12 11.946667-5.12 11.946667 6.826667-1.706667 39.253333-37.546667 81.92-75.093334 88.746667-13.653333 3.413333-25.6 6.826667-35.84 17.066666-13.653333 13.653333-15.36 25.6-3.413333 35.84 20.48 18.773333 34.133333 20.48 47.786667 3.413334 8.533333-11.946667 15.36-23.893333 22.186666-35.84 5.12-8.533333 8.533333-8.533333 15.36-3.413334l46.08 35.84c17.066667 13.653333 27.306667 10.24 30.72-11.946666 1.706667-6.826667 1.706667-11.946667 1.706667-18.773334 0-34.133333 1.706667-66.56 0-100.693333-1.706667-32.426667 8.533333-59.733333 27.306667-85.333333 13.653333-17.066667 32.426667-32.426667 22.186666-59.733334-1.706667-3.413333 1.706667-6.826667 3.413334-10.24 1.706667-5.12 1.706667-8.533333-3.413334-11.946666-6.826667-3.413333-8.533333-10.24-11.946666-18.773334-3.413333-8.533333-8.533333-13.653333-18.773334-17.066666-5.12-1.706667-11.946667 0-11.946666-5.12-1.706667-6.826667 5.12-8.533333 10.24-11.946667 23.893333-13.653333 47.786667-29.013333 71.68-42.666667 5.12-3.413333 10.24-5.12 13.653333-10.24 11.946667-27.306667 23.893333-54.613333 35.84-83.626666-3.413333-5.12-10.24-11.946667-17.066667-15.36zM1843.2 428.373333c-5.12 15.36-10.24 29.013333-15.36 44.373334-6.826667 22.186667-18.773333 37.546667-44.373333 44.373333 10.24-34.133333 20.48-66.56 30.72-98.986667 5.12-17.066667 20.48-25.6 35.84-34.133333 3.413333 17.066667-1.706667 30.72-6.826667 44.373333z" fill="#9F0006" /><path d="M952.32 576.853333c-8.533333 71.68-35.84 136.533333-80.213333 192.853334-112.64 143.36-259.413333 203.093333-436.906667 163.84-182.613333-39.253333-295.253333-160.426667-334.506667-341.333334C47.786667 343.04 221.866667 104.106667 476.16 71.68c197.973333-25.6 399.36 102.4 460.8 293.546667 20.48 66.56 29.013333 133.12 18.773333 201.386666 0 3.413333-1.706667 6.826667-3.413333 10.24-8.533333-17.066667-15.36-35.84-5.12-56.32 6.826667-13.653333 5.12-29.013333 0-44.373333-5.12-15.36-8.533333-29.013333-8.533333-46.08 1.706667-15.36-6.826667-22.186667-20.48-22.186667-10.24 0-20.48 1.706667-29.013334 0-25.6-3.413333-29.013333 22.186667-42.666666 32.426667-1.706667 0-1.706667 3.413333 0 3.413333 20.48 13.653333 0 32.426667 8.533333 47.786667 5.12-1.706667 6.826667-11.946667 13.653333-8.533333 6.826667 3.413333 5.12 10.24 6.826667 17.066666 0 10.24 6.826667 13.653333 11.946667 20.48 11.946667 11.946667 22.186667 23.893333 37.546666 30.72 1.706667 0 3.413333 3.413333 3.413334 6.826667 1.706667 18.773333 11.946667 20.48 23.893333 18.773333z" fill="#FBFAFB" /><path d="M2604.373333 860.16c11.946667-6.826667 29.013333-8.533333 23.893334-25.6-3.413333-17.066667-20.48-18.773333-34.133334-18.773333h-42.666666c11.946667 13.653333 11.946667 69.973333 1.706666 85.333333h32.426667c-8.533333-10.24-11.946667-35.84-6.826667-37.546667 11.946667-3.413333 13.653333 10.24 20.48 15.36l10.24 10.24c8.533333 11.946667 18.773333 15.36 32.426667 10.24-11.946667-13.653333-23.893333-25.6-37.546667-39.253333z m-17.066666-5.12c-15.36 1.706667-6.826667-10.24-10.24-15.36 0-10.24-3.413333-22.186667 11.946666-20.48 11.946667 1.706667 23.893333 3.413333 23.893334 18.773333-1.706667 15.36-15.36 15.36-25.6 17.066667z" fill="#8F0D21" /><path d="M1652.053333 890.88c-11.946667 3.413333-23.893333 5.12-35.84 1.706667 0-20.48 0-39.253333-1.706666-59.733334 0-11.946667 5.12-15.36 15.36-13.653333 17.066667 1.706667 32.426667 6.826667 39.253333 23.893333 6.826667 20.48-1.706667 35.84-17.066667 47.786667z" fill="#FCF8F9" /><path d="M1774.933333 819.2c-3.413333-3.413333-6.826667-1.706667-8.533333 3.413333h1.706667c17.066667 13.653333 17.066667 32.426667 11.946666 52.906667-3.413333 13.653333-13.653333 22.186667-29.013333 22.186667-15.36 0-25.6-6.826667-30.72-22.186667-6.826667-20.48-1.706667-42.666667 13.653333-52.906667h1.706667c-1.706667-5.12-5.12-5.12-8.533333-3.413333-17.066667 5.12-23.893333 17.066667-25.6 34.133333-3.413333 32.426667 22.186667 52.906667 59.733333 47.786667 20.48-1.706667 37.546667-17.066667 40.96-35.84 1.706667-20.48-6.826667-35.84-27.306667-46.08z" fill="#930E1E" /><path d="M1464.32 899.413333c-15.36-29.013333-30.72-58.026667-47.786667-88.746666-17.066667 30.72-29.013333 61.44-49.493333 88.746666h23.893333c-11.946667-8.533333-5.12-18.773333 1.706667-23.893333 11.946667-8.533333 27.306667-5.12 39.253333-1.706667 6.826667 1.706667 13.653333 15.36 6.826667 25.6h25.6z m-68.266667-32.426666c3.413333-13.653333 8.533333-22.186667 15.36-32.426667 8.533333 10.24 11.946667 20.48 17.066667 32.426667h-32.426667z" fill="#901328" /><path d="M213.333333 505.173333c0-170.666667 138.24-310.613333 308.906667-310.613333 175.786667 0 310.613333 138.24 310.613333 310.613333 1.706667 170.666667-139.946667 310.613333-310.613333 310.613334-170.666667-1.706667-308.906667-139.946667-308.906667-310.613334z" fill="#8E051A" /><path d="M484.693333 95.573333c0-6.826667-11.946667-8.533333-5.12-17.066666 5.12-6.826667 10.24-1.706667 15.36-1.706667 17.066667 3.413333 35.84-3.413333 52.906667 3.413333 5.12 1.706667 10.24 0 11.946667 10.24 3.413333 10.24 17.066667 11.946667 27.306666 6.826667 6.826667-3.413333 11.946667-5.12 17.066667 5.12 3.413333 5.12 10.24 8.533333 13.653333 6.826667 15.36-5.12 27.306667-1.706667 39.253334 11.946666 5.12 6.826667 8.533333 8.533333 1.706666 13.653334-3.413333 3.413333-6.826667 8.533333-8.533333 13.653333-5.12 15.36-15.36 20.48-32.426667 17.066667-11.946667-1.706667-25.6-3.413333-32.426666 13.653333-1.706667 3.413333-5.12 6.826667-8.533334 5.12-13.653333-8.533333-32.426667 1.706667-44.373333-11.946667-1.706667-1.706667-5.12-1.706667-8.533333-1.706666-17.066667 6.826667-30.72 0-47.786667-3.413334-6.826667-1.706667-13.653333-1.706667-13.653333 8.533334 0 8.533333-6.826667 10.24-13.653334 11.946666-13.653333 3.413333-23.893333 3.413333-30.72-11.946666-3.413333-10.24-15.36-17.066667-22.186666-23.893334-10.24-8.533333-13.653333-29.013333-5.12-40.96 5.12-8.533333 13.653333-11.946667 23.893333-8.533333 10.24 3.413333 18.773333 1.706667 27.306667-6.826667 8.533333-6.826667 10.24-6.826667 42.666666 0zM858.453333 349.866667c-15.36-5.12-32.426667-3.413333-47.786666-3.413334-8.533333 0-8.533333-6.826667-8.533334-13.653333 1.706667-17.066667 0-30.72-22.186666-34.133333-15.36-1.706667-10.24-18.773333-11.946667-29.013334-1.706667-10.24 8.533333-29.013333-13.653333-10.24-5.12 3.413333-10.24 0-13.653334-1.706666-23.893333-6.826667-35.84-25.6-30.72-49.493334 1.706667-3.413333 0-8.533333 0-13.653333 0-23.893333 1.706667-20.48 25.6-23.893333 18.773333-3.413333 34.133333-3.413333 51.2 5.12 8.533333 5.12 15.36 6.826667 8.533334 17.066666-3.413333 6.826667-1.706667 11.946667 3.413333 17.066667 6.826667 5.12 10.24 0 13.653333-3.413333 5.12-5.12 10.24-1.706667 11.946667 1.706666 8.533333 23.893333 37.546667 39.253333 30.72 71.68-1.706667 6.826667 6.826667 6.826667 11.946667 5.12 10.24-3.413333 17.066667 1.706667 22.186666 8.533334 5.12 6.826667 0 13.653333-1.706666 20.48-6.826667 15.36-23.893333 20.48-29.013334 35.84zM250.88 317.44c-5.12-5.12-5.12-15.36-15.36-15.36-8.533333 0-5.12 10.24-10.24 15.36-6.826667-15.36-15.36-15.36-27.306667-6.826667-3.413333 3.413333-8.533333 3.413333-13.653333 3.413334-5.12 0-11.946667 0-13.653333-6.826667-1.706667-6.826667 5.12-10.24 10.24-11.946667 15.36-3.413333 22.186667-6.826667 1.706666-17.066666-10.24-5.12-3.413333-13.653333 3.413334-20.48 17.066667-15.36 32.426667-32.426667 42.666666-51.2 3.413333-5.12 6.826667-8.533333 13.653334-8.533334 13.653333 0 22.186667-6.826667 22.186666-20.48v-1.706666c0-3.413333 42.666667-35.84 44.373334-35.84 5.12 1.706667 11.946667 1.706667 15.36 6.826666 3.413333 5.12-1.706667 10.24-6.826667 13.653334-11.946667 5.12-8.533333 11.946667-1.706667 18.773333 8.533333 8.533333 17.066667 17.066667 25.6 27.306667 3.413333 5.12 6.826667 11.946667 1.706667 18.773333-6.826667 6.826667-11.946667 1.706667-17.066667-3.413333-3.413333-3.413333-8.533333-5.12-13.653333-1.706667-5.12 3.413333-5.12 10.24-1.706667 15.36 10.24 11.946667 3.413333 18.773333-6.826666 22.186667-6.826667 3.413333-10.24 8.533333-13.653334 13.653333-3.413333 8.533333-10.24 13.653333-20.48 11.946667-13.653333-1.706667-20.48 3.413333-17.066666 17.066666 3.413333 8.533333 3.413333 11.946667-1.706667 17.066667zM952.32 576.853333c-17.066667 11.946667-23.893333 8.533333-27.306667-13.653333-1.706667-11.946667-8.533333-13.653333-18.773333-13.653333-10.24 0-15.36-3.413333-13.653333-13.653334 0-3.413333 3.413333-8.533333-3.413334-8.533333-18.773333 0-20.48-15.36-18.773333-29.013333 0-3.413333 0-6.826667-3.413333-8.533334-8.533333 3.413333-5.12 20.48-15.36 17.066667-8.533333-3.413333-3.413333-17.066667-3.413334-25.6 0-5.12 1.706667-10.24 3.413334-13.653333 3.413333-6.826667 1.706667-10.24-5.12-11.946667-15.36-3.413333-10.24-10.24 0-15.36 3.413333-1.706667 8.533333-5.12 8.533333-8.533333 3.413333-22.186667 20.48-22.186667 35.84-23.893334h17.066667c37.546667 0 37.546667 0 37.546666 37.546667 0 8.533333 1.706667 17.066667 5.12 25.6 8.533333 22.186667 11.946667 44.373333-1.706666 64.853333-3.413333 5.12-5.12 8.533333-1.706667 13.653334 5.12 6.826667 5.12 17.066667 5.12 27.306666zM110.933333 559.786667c1.706667-20.48 1.706667-39.253333-5.12-52.906667-6.826667-17.066667-10.24-29.013333 3.413334-46.08 6.826667-8.533333 0-27.306667 5.12-39.253333 3.413333-6.826667 6.826667-15.36 10.24-22.186667 3.413333-5.12 8.533333-8.533333 13.653333-8.533333 6.826667 0 5.12 6.826667 6.826667 11.946666 8.533333 15.36 15.36 32.426667 35.84 34.133334 6.826667 0 15.36 5.12 8.533333 11.946666-15.36 15.36-8.533333 32.426667-6.826667 47.786667 1.706667 17.066667-6.826667 30.72-13.653333 44.373333-5.12 8.533333-15.36 11.946667-25.6 11.946667-10.24-1.706667-20.48-3.413333-32.426667 6.826667z" fill="#FEFEFE" /><path d="M907.946667 354.986667c8.533333 0 8.533333 10.24 15.36 13.653333 5.12 3.413333 11.946667 5.12 8.533333 11.946667-3.413333 6.826667-10.24 3.413333-17.066667 1.706666-5.12-1.706667-11.946667-5.12-17.066666-6.826666-22.186667-10.24-39.253333-1.706667-44.373334 22.186666 0 3.413333 0 8.533333-3.413333 10.24-6.826667 1.706667-5.12-3.413333-5.12-8.533333 0-3.413333-3.413333-3.413333-6.826667-5.12-22.186667-3.413333-23.893333-5.12-17.066666-29.013333 1.706667-5.12 1.706667-11.946667 6.826666-13.653334 6.826667-1.706667 8.533333 6.826667 13.653334 8.533334 3.413333 1.706667 3.413333 11.946667 10.24 8.533333 10.24-3.413333 6.826667-11.946667 6.826666-18.773333 13.653333 0 23.893333 11.946667 35.84 15.36 5.12 1.706667 10.24 6.826667 11.946667-3.413334 0-1.706667 0-5.12 1.706667-6.826666z" fill="#972637" /><path d="M382.293333 196.266667c1.706667 6.826667 5.12 11.946667 6.826667 18.773333-5.12 5.12-18.773333-5.12-18.773333 10.24 0 3.413333-5.12 3.413333-6.826667 1.706667-3.413333-1.706667-1.706667-5.12 0-8.533334 5.12-5.12 10.24-10.24 6.826667-20.48-8.533333 6.826667-15.36 11.946667-15.36-5.12 0-6.826667 3.413333-15.36-8.533334-18.773333-3.413333-1.706667-3.413333-3.413333-1.706666-5.12 13.653333-11.946667 5.12-29.013333 8.533333-44.373333 6.826667 1.706667 5.12 8.533333 8.533333 11.946666 3.413333-3.413333 5.12-6.826667 8.533334-10.24-3.413333 25.6 3.413333 47.786667 11.946666 69.973334z" fill="#901824" /><path d="M416.426667 868.693333c5.12-11.946667 6.826667-17.066667 10.24-23.893333 1.706667-3.413333 1.706667-8.533333 8.533333-6.826667 6.826667 1.706667 3.413333 6.826667 1.706667 10.24-3.413333 11.946667-8.533333 23.893333-11.946667 37.546667-1.706667 3.413333-1.706667 8.533333-8.533333 8.533333-5.12 0-6.826667-3.413333-8.533334-8.533333-1.706667-8.533333-5.12-18.773333-6.826666-29.013333-8.533333 3.413333-6.826667 10.24-8.533334 15.36-3.413333 3.413333-1.706667 11.946667-8.533333 10.24-8.533333-1.706667-3.413333-8.533333-1.706667-13.653334 3.413333-11.946667 6.826667-22.186667 11.946667-32.426666 1.706667-3.413333 0-10.24 6.826667-8.533334 5.12 0 8.533333 5.12 10.24 10.24-1.706667 6.826667 0 15.36 5.12 30.72z" fill="#930D1C" /><path d="M484.693333 873.813333c3.413333 1.706667 13.653333-3.413333 13.653334 6.826667 0 6.826667 1.706667 17.066667-8.533334 20.48-13.653333 5.12-27.306667 5.12-39.253333-6.826667-10.24-10.24-10.24-29.013333 0-40.96s23.893333-11.946667 37.546667-6.826666c6.826667 3.413333 13.653333 8.533333 10.24 15.36-5.12 8.533333-10.24 0-13.653334-3.413334-6.826667-5.12-15.36-5.12-20.48-1.706666-8.533333 6.826667-8.533333 15.36-6.826666 25.6 1.706667 6.826667 6.826667 10.24 13.653333 10.24 3.413333 0 10.24 1.706667 11.946667-3.413334 3.413333-6.826667-3.413333-6.826667-6.826667-8.533333-3.413333 0-3.413333-3.413333-3.413333-5.12 1.706667-5.12 6.826667-3.413333 11.946666-1.706667z" fill="#8A1129" /><path d="M240.64 738.986667c-6.826667 6.826667-13.653333 10.24-18.773333 15.36-3.413333 3.413333-6.826667 3.413333-8.533334 0-3.413333-3.413333 0-6.826667 1.706667-8.533334 10.24-8.533333 22.186667-18.773333 32.426667-27.306666 3.413333-1.706667 5.12-5.12 10.24-1.706667 3.413333 3.413333 3.413333 6.826667 3.413333 10.24-1.706667 10.24-8.533333 18.773333-8.533333 34.133333 6.826667-5.12 11.946667-10.24 18.773333-15.36 3.413333-3.413333 6.826667-6.826667 10.24-1.706666 3.413333 5.12 0 8.533333-3.413333 10.24-8.533333 8.533333-18.773333 17.066667-29.013334 23.893333-3.413333 3.413333-6.826667 8.533333-11.946666 3.413333-5.12-3.413333-3.413333-8.533333-1.706667-13.653333 1.706667-6.826667 6.826667-15.36 5.12-29.013333z" fill="#900D24" /><path d="M640 870.4c-3.413333-11.946667-5.12-18.773333-6.826667-27.306667-1.706667-3.413333-3.413333-8.533333 3.413334-10.24 5.12 0 6.826667 3.413333 6.826666 6.826667 3.413333 11.946667 6.826667 25.6 10.24 37.546667 1.706667 3.413333 3.413333 8.533333-1.706666 11.946666-5.12 1.706667-8.533333 0-11.946667-3.413333-1.706667-1.706667-5.12-3.413333-6.826667-6.826667-5.12-3.413333-10.24-13.653333-15.36-10.24-6.826667 3.413333 1.706667 11.946667 1.706667 17.066667 0 3.413333 3.413333 8.533333-3.413333 10.24-5.12 1.706667-6.826667-3.413333-8.533334-8.533333-3.413333-11.946667-6.826667-25.6-10.24-37.546667-1.706667-3.413333-3.413333-6.826667 1.706667-10.24 3.413333-1.706667 8.533333-1.706667 11.946667 1.706667 8.533333 10.24 17.066667 17.066667 29.013333 29.013333z" fill="#900D23" /><path d="M839.68 757.76c-5.12 13.653333-15.36 8.533333-25.6 6.826667-5.12 0-10.24-1.706667-13.653333 3.413333-3.413333 6.826667 3.413333 8.533333 5.12 11.946667 1.706667 3.413333 10.24 5.12 3.413333 11.946666-5.12 5.12-8.533333 0-11.946667-1.706666-5.12-5.12-11.946667-10.24-17.066666-15.36-5.12-6.826667-18.773333-10.24-15.36-18.773334 3.413333-10.24 13.653333-18.773333 23.893333-25.6 8.533333-5.12 15.36-1.706667 20.48 5.12 13.653333 17.066667 13.653333 17.066667 30.72 22.186667z" fill="#910D22" /><path d="M285.013333 822.613333c-8.533333 0-15.36-10.24-25.6-18.773333-3.413333-1.706667-1.706667-5.12 0-8.533333 10.24-11.946667 20.48-23.893333 30.72-34.133334 1.706667-1.706667 3.413333-3.413333 6.826667-1.706666 10.24 1.706667 25.6 23.893333 23.893333 34.133333-1.706667 15.36-17.066667 29.013333-35.84 29.013333z" fill="#8A1021" /><path d="M377.173333 829.44c0 17.066667-15.36 32.426667-29.013333 32.426667-15.36 0-30.72-13.653333-30.72-29.013334 0-17.066667 17.066667-34.133333 30.72-32.426666 15.36 1.706667 29.013333 15.36 29.013333 29.013333z" fill="#8C0E25" /><path d="M206.506667 617.813333c-1.706667 6.826667-6.826667 6.826667-10.24 6.826667-8.533333 1.706667-8.533333 6.826667-6.826667 13.653333 1.706667 6.826667 5.12 10.24 13.653333 6.826667 5.12-1.706667 11.946667-6.826667 15.36 1.706667 1.706667 8.533333-8.533333 6.826667-11.946666 10.24-8.533333 3.413333-18.773333 6.826667-27.306667 10.24-5.12 1.706667-11.946667 10.24-15.36-1.706667-3.413333-8.533333 5.12-6.826667 10.24-10.24 5.12-3.413333 11.946667-3.413333 8.533333-11.946667-3.413333-8.533333-6.826667-13.653333-17.066666-8.533333-5.12 1.706667-10.24 6.826667-13.653334 0-3.413333-10.24 5.12-8.533333 10.24-10.24 11.946667-5.12 23.893333-8.533333 34.133334-11.946667 5.12-3.413333 8.533333 0 10.24 5.12z" fill="#901125" /><path d="M754.346667 764.586667c1.706667 1.706667 3.413333 1.706667 3.413333 3.413333 1.706667 3.413333 0 5.12-1.706667 6.826667-5.12 6.826667-20.48 10.24-15.36 18.773333 8.533333 11.946667 13.653333-5.12 20.48-6.826667 3.413333 0 5.12-3.413333 8.533334 0 3.413333 5.12 0 6.826667-1.706667 8.533334-3.413333 6.826667-18.773333 6.826667-11.946667 17.066666 10.24 13.653333 13.653333-5.12 22.186667-6.826666 3.413333-1.706667 6.826667-8.533333 11.946667-1.706667 3.413333 5.12-1.706667 6.826667-5.12 10.24-25.6 22.186667-25.6 22.186667-47.786667-3.413333-5.12-6.826667-17.066667-15.36-13.653333-20.48 6.826667-10.24 18.773333-17.066667 27.306666-23.893334 0 0 1.706667 0 3.413334-1.706666z" fill="#8F1128" /><path d="M844.8 738.986667c-3.413333-1.706667-10.24 0-10.24-5.12 0-3.413333 1.706667-8.533333 8.533333-6.826667 5.12 0 8.533333-1.706667 11.946667-5.12 1.706667-3.413333 5.12-8.533333 0-11.946667-3.413333-3.413333-6.826667-1.706667-10.24 0-3.413333 3.413333-6.826667 5.12-10.24 8.533334-8.533333 5.12-15.36 6.826667-23.893333 0-6.826667-6.826667-5.12-15.36-1.706667-22.186667 5.12-8.533333 10.24-15.36 22.186667-13.653333 1.706667 0 5.12 3.413333 5.12 3.413333 0 3.413333-1.706667 5.12-5.12 6.826667-3.413333 1.706667-6.826667 1.706667-10.24 3.413333-1.706667 3.413333-5.12 8.533333-1.706667 11.946667 3.413333 3.413333 6.826667 0 10.24-1.706667l5.12-5.12c8.533333-6.826667 17.066667-10.24 27.306667-3.413333 6.826667 5.12 8.533333 11.946667 6.826666 18.773333-5.12 11.946667-11.946667 20.48-23.893333 22.186667z" fill="#921129" /><path d="M197.973333 580.266667c0 6.826667 0 11.946667-3.413333 15.36-1.706667 3.413333-5.12 6.826667-8.533333 5.12-3.413333-1.706667-3.413333-6.826667-3.413334-10.24 1.706667-3.413333 5.12-6.826667 3.413334-11.946667-1.706667-3.413333 0-6.826667-5.12-6.826667-3.413333 0-5.12 3.413333-6.826667 5.12-1.706667 5.12 0 10.24-1.706667 15.36-1.706667 10.24-8.533333 17.066667-18.773333 15.36-11.946667 0-15.36-10.24-17.066667-20.48-1.706667-10.24 0-18.773333 10.24-23.893333 1.706667-1.706667 5.12-1.706667 6.826667 0 1.706667 3.413333 3.413333 5.12 0 8.533333-5.12 3.413333-6.826667 8.533333-5.12 15.36 0 3.413333 1.706667 6.826667 6.826667 6.826667 5.12 0 6.826667-3.413333 6.826666-6.826667V580.266667c0-11.946667 3.413333-22.186667 17.066667-22.186667 15.36 1.706667 17.066667 13.653333 18.773333 22.186667z" fill="#8B132A" /><path d="M587.093333 878.933333c1.706667 17.066667-5.12 25.6-22.186666 27.306667-17.066667 1.706667-25.6-8.533333-25.6-23.893333 0-8.533333-1.706667-17.066667-1.706667-25.6 0-3.413333 0-8.533333 5.12-8.533334 6.826667 0 6.826667 3.413333 6.826667 8.533334 0 8.533333 1.706667 17.066667 3.413333 25.6 0 6.826667 3.413333 13.653333 11.946667 13.653333 8.533333 0 10.24-6.826667 10.24-15.36-1.706667-8.533333-1.706667-15.36-1.706667-23.893333 0-5.12-1.706667-10.24 5.12-11.946667 6.826667 0 6.826667 5.12 6.826667 8.533333 0 10.24 1.706667 18.773333 1.706666 25.6z" fill="#8B162B" /><path d="M610.986667 184.32c8.533333-1.706667 17.066667-3.413333 25.6-6.826667 11.946667-5.12 30.72-8.533333 15.36-32.426666 17.066667 3.413333 32.426667 10.24 40.96-13.653334 3.413333 18.773333 13.653333 20.48 27.306666 17.066667-11.946667 15.36-80.213333 37.546667-109.226666 35.84z" fill="#931322" /><path d="M238.933333 691.2c-3.413333 5.12-6.826667 10.24-10.24 13.653333-5.12 6.826667-11.946667 15.36-17.066666 22.186667-3.413333 3.413333-5.12 11.946667-11.946667 8.533333-6.826667-3.413333 0-8.533333 0-13.653333 1.706667-10.24-1.706667-20.48-13.653333-22.186667-5.12 0-10.24 0-10.24-6.826666s5.12-5.12 10.24-6.826667c13.653333-1.706667 29.013333-3.413333 42.666666-5.12 5.12-3.413333 8.533333 1.706667 10.24 10.24z" fill="#921126" /><path d="M709.973333 839.68c1.706667-11.946667-1.706667-22.186667-3.413333-30.72 0-5.12 0-10.24 6.826667-11.946667 6.826667-1.706667 5.12 5.12 5.12 8.533334 3.413333 13.653333 5.12 27.306667 6.826666 42.666666 0 5.12 0 8.533333-5.12 10.24-5.12 1.706667-8.533333 0-11.946666-1.706666-11.946667-10.24-22.186667-18.773333-34.133334-29.013334-1.706667-1.706667-6.826667-3.413333-3.413333-8.533333 3.413333-3.413333 6.826667-5.12 11.946667-1.706667 8.533333 6.826667 17.066667 13.653333 27.306666 22.186667z" fill="#8F1327" /><path d="M856.746667 604.16c1.706667-13.653333 1.706667-13.653333 25.6-23.893333-6.826667-5.12-11.946667-10.24-17.066667-15.36-3.413333-3.413333-1.706667-6.826667 1.706667-10.24 3.413333-1.706667 5.12 0 8.533333 3.413333 11.946667 10.24 22.186667 23.893333 40.96 23.893333 3.413333 0 5.12 3.413333 5.12 6.826667s-3.413333 5.12-6.826667 5.12c-23.893333-6.826667-39.253333 3.413333-58.026666 10.24z" fill="#8F142A" /><path d="M860.16 616.106667c-3.413333 6.826667 1.706667 10.24 6.826667 11.946666 10.24 3.413333 20.48 6.826667 29.013333 10.24 3.413333 1.706667 5.12 1.706667 5.12 6.826667-1.706667 3.413333-3.413333 6.826667-8.533333 5.12-6.826667-1.706667-11.946667-5.12-18.773334-6.826667-10.24-1.706667-20.48-11.946667-27.306666 5.12-1.706667 3.413333-5.12 3.413333-6.826667 1.706667-1.706667-1.706667-1.706667-5.12-1.706667-6.826667 3.413333-11.946667 6.826667-22.186667 11.946667-32.426666 1.706667-3.413333 3.413333-5.12 6.826667-3.413334 6.826667 1.706667 5.12 5.12 3.413333 8.533334z" fill="#90152C" /><path d="M163.84 389.12c10.24-1.706667 10.24 6.826667 18.773333 10.24 1.706667-13.653333 5.12-27.306667 6.826667-42.666667 8.533333 20.48 8.533333 37.546667 1.706667 54.613334-1.706667 5.12-3.413333 8.533333-10.24 8.533333-5.12 0-6.826667-3.413333-8.533334-8.533333-1.706667-8.533333-5.12-15.36-8.533333-22.186667z" fill="#8E1630" /><path d="M837.973333 657.066667c15.36 6.826667 30.72 13.653333 44.373334 22.186666 1.706667 1.706667 3.413333 3.413333 1.706666 6.826667s-3.413333 6.826667-6.826666 5.12l-46.08-20.48c-3.413333-1.706667-3.413333-5.12-1.706667-8.533333 5.12-3.413333 6.826667-5.12 8.533333-5.12z" fill="#91122B" /><path d="M677.546667 878.933333c-5.12 0-6.826667-5.12-8.533334-8.533333-5.12-15.36-15.36-27.306667-15.36-44.373333 0-3.413333 6.826667-3.413333 8.533334 0 6.826667 15.36 13.653333 30.72 18.773333 46.08 5.12 3.413333 1.706667 5.12-3.413333 6.826666z" fill="#8E1221" /><path d="M180.906667 361.813333c-10.24-13.653333-20.48-25.6-29.013334-37.546666 15.36 0 25.6 10.24 29.013334 37.546666z" fill="#8E3747" /><path d="M665.6 216.746667c3.413333-6.826667 6.826667-10.24 8.533333-15.36 1.706667-3.413333 1.706667-10.24 8.533334-8.533334 1.706667 0 5.12 5.12 5.12 8.533334 1.706667 5.12 0 8.533333-5.12 10.24-5.12 1.706667-10.24 3.413333-17.066667 5.12z" fill="#932936" /><path d="M209.92 365.226667c-1.706667-8.533333-3.413333-15.36-5.12-20.48 0-3.413333-3.413333-6.826667 0-8.533334 3.413333-1.706667 8.533333-1.706667 11.946667 0 3.413333 1.706667 3.413333 5.12 1.706666 8.533334-1.706667 5.12-5.12 11.946667-8.533333 20.48z" fill="#892D41" /><path d="M907.946667 354.986667c0 1.706667 0 3.413333-1.706667 5.12-5.12-3.413333-11.946667-6.826667-17.066667-11.946667-1.706667-1.706667-5.12-5.12-1.706666-6.826667 1.706667-1.706667 5.12-3.413333 6.826666-3.413333 3.413333 0 6.826667 0 5.12 6.826667-1.706667 5.12 6.826667 6.826667 8.533334 10.24z" fill="#A06769" /><path d="M197.973333 529.066667c-11.946667-10.24-5.12-18.773333 0-30.72 3.413333 11.946667 3.413333 18.773333 0 30.72zM138.24 628.053333c-1.706667 5.12-3.413333 10.24-10.24 11.946667-3.413333 0-5.12-1.706667-5.12-3.413333 1.706667-5.12 3.413333-11.946667 8.533333-11.946667 5.12-3.413333 6.826667 0 6.826667 3.413333z" fill="#FEFEFE" /><path d="M382.293333 196.266667c1.706667-5.12 5.12-5.12 8.533334-5.12s6.826667-1.706667 8.533333 3.413333v6.826667c-3.413333 3.413333-6.826667 0-8.533333-1.706667-3.413333 0-5.12-1.706667-8.533334-3.413333z" fill="#793244" /><path d="M199.68 541.013333c0 3.413333-1.706667 5.12-5.12 3.413334-3.413333-1.706667-5.12-3.413333-5.12-6.826667 0-1.706667 0-5.12 3.413333-5.12 5.12 1.706667 6.826667 5.12 6.826667 8.533333z" fill="#FEFEFE" /><path d="M523.946667 638.293333H278.186667c-17.066667 0-23.893333-5.12-29.013334-20.48-42.666667-112.64-27.306667-218.453333 52.906667-308.906666 80.213333-90.453333 182.613333-121.173333 300.373333-90.453334 117.76 30.72 189.44 110.933333 215.04 230.4 13.653333 59.733333 5.12 119.466667-18.773333 175.786667-3.413333 10.24-8.533333 13.653333-20.48 13.653333H523.946667z" fill="#FDFDFD" /><path d="M267.946667 653.653333h513.706666c-59.733333 92.16-141.653333 141.653333-249.173333 146.773334-116.053333 6.826667-218.453333-63.146667-264.533333-146.773334z" fill="#FDFCFB" /><path d="M826.026667 365.226667c8.533333 5.12 15.36 11.946667 15.36 18.773333 0 3.413333-5.12 3.413333-8.533334 1.706667-10.24-1.706667-6.826667-10.24-6.826666-20.48z" fill="#FDE1E2" /><path d="M802.133333 745.813333c-1.706667 6.826667-6.826667 11.946667-11.946666 15.36-5.12 1.706667-8.533333-3.413333-8.533334-6.826666 0-6.826667 6.826667-11.946667 13.653334-13.653334 3.413333-1.706667 5.12 3.413333 6.826666 5.12z" fill="#F6D1C9" /><path d="M308.906667 791.893333c-5.12 10.24-8.533333 20.48-22.186667 20.48-5.12 0-11.946667-3.413333-13.653333-10.24 0-3.413333 22.186667-27.306667 23.893333-25.6 6.826667 1.706667 11.946667 6.826667 11.946667 15.36z" fill="#FAECEE" /><path d="M344.746667 851.626667c-8.533333-1.706667-15.36-5.12-15.36-15.36 0-11.946667 6.826667-22.186667 18.773333-23.893334 8.533333-1.706667 15.36 5.12 15.36 13.653334 0 13.653333-6.826667 22.186667-18.773333 25.6z" fill="#F8ECEB" /><path d="M221.866667 691.2c-5.12 6.826667-6.826667 13.653333-13.653334 13.653333-1.706667 0-5.12-5.12-3.413333-6.826666 1.706667-8.533333 8.533333-5.12 17.066667-6.826667z" fill="#F5C2C2" /><path d="M783.36 571.733333c13.653333 23.893333 13.653333 25.6-11.946667 34.133334-17.066667 5.12-34.133333 5.12-51.2-3.413334-8.533333-3.413333-15.36-3.413333-23.893333 0-27.306667 13.653333-54.613333 15.36-81.92 0-5.12-3.413333-10.24-1.706667-15.36 0-22.186667 11.946667-46.08 17.066667-68.266667 1.706667-5.12-3.413333-6.826667-1.706667-11.946666 0-20.48 15.36-42.666667 10.24-63.146667 0-8.533333-5.12-15.36-5.12-23.893333 0-25.6 11.946667-52.906667 10.24-78.506667-1.706667-8.533333-3.413333-15.36-5.12-23.893333-1.706666-17.066667 8.533333-34.133333 8.533333-52.906667 3.413333-23.893333-6.826667-23.893333-8.533333-10.24-32.426667 23.893333 15.36 47.786667 17.066667 69.973333-3.413333 5.12-5.12 8.533333 0 11.946667 3.413333 29.013333 22.186667 58.026667 22.186667 87.04 1.706667 5.12-5.12 10.24-5.12 15.36 0 1.706667 1.706667 3.413333 3.413333 6.826667 3.413333 29.013333 17.066667 34.133333 15.36 37.546666-18.773333 1.706667-13.653333 3.413333-25.6 5.12-39.253333 1.706667-10.24 1.706667-18.773333-11.946666-20.48 5.12-8.533333 10.24-15.36 17.066666-25.6h-51.2c-5.12 0-6.826667 3.413333-8.533333 6.826666-1.706667 5.12-3.413333 8.533333-6.826667 13.653334-13.653333 30.72-13.653333 30.72-49.493333 25.6 1.706667-15.36 11.946667-29.013333 17.066667-46.08h-32.426667c-8.533333 0-13.653333 3.413333-17.066667 11.946666-1.706667 3.413333-1.706667 5.12-3.413333 8.533334-13.653333 29.013333-13.653333 29.013333-49.493333 27.306666 1.706667-15.36 13.653333-29.013333 17.066666-46.08h-34.133333c-10.24 0-11.946667-1.706667-11.946667-11.946666 0-27.306667 0-29.013333 25.6-25.6 32.426667 3.413333 52.906667-5.12 63.146667-37.546667 6.826667-20.48 18.773333-39.253333 27.306667-58.026667 5.12-10.24 8.533333-10.24 17.066666-1.706666 10.24 11.946667 20.48 20.48 30.72 32.426666 10.24 13.653333 15.36 8.533333 22.186667-3.413333 18.773333-40.96 39.253333-80.213333 59.733333-119.466667l6.826667-13.653333 73.386667 146.773333c18.773333-17.066667 35.84-34.133333 54.613333-52.906666 10.24 20.48 20.48 40.96 30.72 59.733333 5.12 11.946667 13.653333 22.186667 17.066667 35.84 10.24 32.426667 29.013333 49.493333 63.146666 40.96 10.24-1.706667 15.36 3.413333 11.946667 11.946667-3.413333 8.533333 8.533333 23.893333-10.24 25.6h-20.48c0 1.706667 0 3.413333-1.706667 5.12-1.706667 6.826667 13.653333 17.066667 0 20.48-11.946667 1.706667-30.72 11.946667-37.546666-10.24-3.413333-11.946667-10.24-17.066667-22.186667-15.36-8.533333 1.706667-17.066667 0-27.306667 0-1.706667 10.24 6.826667 15.36 6.826667 25.6-6.826667 3.413333-13.653333 0-20.48 1.706666-11.946667 1.706667-18.773333-1.706667-22.186667-13.653333-3.413333-10.24-10.24-13.653333-20.48-13.653333-13.653333 1.706667-27.306667 1.706667-40.96 0-8.533333 0-13.653333 1.706667-11.946666 11.946666 3.413333 20.48 6.826667 40.96 8.533333 63.146667 1.706667 8.533333 5.12 13.653333 13.653333 8.533333 25.6-15.36 49.493333-13.653333 75.093334 0 17.066667 8.533333 37.546667-1.706667 52.906666-13.653333 5.12-3.413333 8.533333-6.826667 15.36-3.413333 30.72 17.066667 37.546667 17.066667 68.266667 1.706666z" fill="#9F0008" /><path d="M510.293333 718.506667c0 6.826667 0 13.653333-1.706666 20.48-1.706667 6.826667-6.826667 11.946667-13.653334 13.653333-6.826667 1.706667-11.946667 0-17.066666-5.12-1.706667-1.706667-5.12-5.12-3.413334-8.533333 3.413333-5.12 5.12-1.706667 8.533334 0 0 0 0 1.706667 1.706666 1.706666 5.12 1.706667 10.24 3.413333 13.653334-1.706666 1.706667-1.706667 3.413333-6.826667 1.706666-8.533334-1.706667-5.12-6.826667-1.706667-10.24-1.706666-11.946667 0-17.066667-8.533333-17.066666-18.773334 0-10.24 3.413333-17.066667 13.653333-20.48 10.24-1.706667 17.066667 0 20.48 10.24 3.413333 5.12 3.413333 13.653333 3.413333 18.773334z" fill="#8B1530" /><path d="M576.853333 718.506667c0 17.066667-1.706667 29.013333-18.773333 32.426666-13.653333 1.706667-22.186667-10.24-22.186667-27.306666 0-5.12 0-10.24 1.706667-15.36 1.706667-10.24 6.826667-20.48 20.48-20.48 11.946667 0 17.066667 10.24 18.773333 20.48v10.24z" fill="#872338" /><path d="M619.52 723.626667c-1.706667 6.826667 3.413333 25.6-3.413333 25.6-11.946667 0-3.413333-17.066667-5.12-25.6-1.706667-6.826667 3.413333-15.36-8.533334-18.773334-1.706667 0-3.413333-3.413333 0-6.826666s8.533333-6.826667 13.653334-8.533334c3.413333-1.706667 5.12 3.413333 5.12 6.826667-1.706667 8.533333-1.706667 17.066667-1.706667 27.306667z" fill="#9C384E" /><path d="M435.2 750.933333c-5.12-10.24-1.706667-22.186667-1.706667-32.426666 0-5.12 3.413333-13.653333-6.826666-11.946667-1.706667 0-3.413333-3.413333-1.706667-5.12 3.413333-5.12 6.826667-8.533333 13.653333-10.24 3.413333 0 5.12 1.706667 5.12 5.12v56.32c-3.413333-1.706667-5.12-1.706667-8.533333-1.706667z" fill="#84152A" /><path d="M525.653333 307.2c25.6 56.32 47.786667 107.52 73.386667 160.426667H546.133333c5.12-8.533333 10.24-15.36 17.066667-25.6-25.6 3.413333-25.6-13.653333-27.306667-29.013334-1.706667-6.826667 3.413333-18.773333-11.946666-18.773333-13.653333 0-8.533333 11.946667-10.24 20.48-1.706667 1.706667 0 5.12 0 6.826667 0 15.36-5.12 22.186667-22.186667 18.773333-8.533333-1.706667-17.066667-1.706667-29.013333-1.706667 20.48-44.373333 40.96-85.333333 63.146666-131.413333z" fill="#FAFAFA" /><path d="M645.12 385.706667c11.946667 23.893333 22.186667 47.786667 32.426667 68.266666 5.12 8.533333 3.413333 11.946667-6.826667 11.946667-11.946667 0-25.6 8.533333-32.426667-1.706667-10.24-13.653333-18.773333-30.72-20.48-47.786666-1.706667-11.946667 15.36-18.773333 27.306667-30.72z" fill="#FBF6F7" /><path d="M411.306667 438.613333c-30.72-1.706667-30.72-1.706667-18.773334-27.306666s11.946667-25.6 32.426667-5.12c6.826667 6.826667 8.533333 11.946667 5.12 22.186666-5.12 10.24-11.946667 11.946667-18.773333 10.24z" fill="#F8EDED" /><path d="M501.76 706.56c0 6.826667-1.706667 10.24-8.533333 11.946667-6.826667 0-10.24-1.706667-10.24-10.24 0-6.826667 1.706667-11.946667 8.533333-11.946667 5.12 0 10.24 3.413333 10.24 10.24z" fill="#FADFDD" /><path d="M568.32 718.506667c-1.706667 8.533333 1.706667 20.48-11.946667 22.186666-15.36 0-11.946667-13.653333-11.946666-22.186666s0-20.48 11.946666-20.48 11.946667 11.946667 11.946667 20.48z" fill="#F7EDEB" /></svg>